<?xml version="1.0" encoding="UTF-8" standalone="no"?><!DOCTYPE svg PUBLIC "-//W3C//DTD SVG 1.1//EN" "http://www.w3.org/Graphics/SVG/1.1/DTD/svg11.dtd"><svg width="100%" height="100%" viewBox="0 0 1000 1000" version="1.1" xmlns="http://www.w3.org/2000/svg" xmlns:xlink="http://www.w3.org/1999/xlink" xml:space="preserve" xmlns:serif="http://www.serif.com/" style="fill-rule:evenodd;clip-rule:evenodd;stroke-linejoin:round;stroke-miterlimit:2;"><path d="M741.775,169.577l12.958,0l19.155,1.127l18.028,2.254l17.465,3.38l16.901,4.507l21.408,7.324l14.085,6.197l9.577,4.507l13.521,7.887l8.451,5.634l9.577,7.324l8.451,7.324l6.761,6.197l4.507,3.944l10.704,10.704l5.07,6.197l6.761,8.451l7.887,11.268l5.07,8.451l5.07,9.014l6.761,12.958l4.507,9.577l5.07,13.521l5.634,19.718l3.944,16.338l3.38,20.845l1.69,19.155l0,25.352l-1.127,15.775l-2.817,25.352l-2.817,16.338l-5.07,23.099l-5.07,19.155l-6.761,20.282l-6.197,15.775l-9.577,21.972l-7.324,15.775l-7.324,14.085l-7.887,13.521l-7.324,12.394l-16.338,24.225l-5.07,7.887l-7.887,10.704l-6.197,7.887l-6.761,9.014l-5.07,6.197l-6.197,7.324l-4.507,5.634l-6.197,7.324l-3.944,3.944l-3.944,4.507l-5.07,5.07l-3.944,4.507l-5.634,5.634l-3.944,4.507l-7.887,7.887l-4.507,3.944l-4.507,4.507l-4.507,3.944l-7.324,6.761l-4.507,3.944l-6.197,5.634l-5.634,4.507l-7.887,6.197l-5.634,4.507l-7.887,6.197l-8.451,6.761l-9.577,7.324l-8.451,6.197l-23.662,15.775l-11.268,7.324l-8.451,5.07l-12.958,7.887l-9.577,5.634l-12.394,6.761l-12.958,6.761l-12.958,7.324l-33.803,16.901l-18.592,8.451l-16.901,7.324l-15.775,6.761l-21.408,8.451l-20.282,7.324l-27.606,9.014l-35.493,10.704l-29.296,7.887l-21.408,5.07l-19.718,3.944l-32.113,5.07l-25.915,3.38l-19.155,1.69l-9.014,0.563l-14.648,0l-10.704,-1.69l-8.451,-3.38l-5.634,-3.38l-5.634,-5.07l-2.817,-4.507l-1.69,-5.07l0,-9.014l2.817,-8.451l3.944,-5.634l6.197,-6.761l6.197,-6.197l7.324,-5.634l11.831,-7.324l10.141,-5.634l13.521,-7.887l11.831,-6.761l15.211,-9.014l9.577,-6.761l6.197,-4.507l5.07,-3.944l7.887,-6.761l8.451,-8.451l5.634,-9.014l3.38,-10.141l0.563,-3.38l0,-7.324l-1.127,-5.634l-2.254,-5.07l-3.38,-4.507l-5.07,-3.944l-6.761,-2.817l-2.817,-0.563l-10.141,0l-15.775,3.944l-17.465,6.197l-21.408,8.451l-25.915,9.014l-10.704,3.944l-16.901,6.197l-60.845,20.282l-29.859,9.577l-22.535,6.761l-21.408,6.197l-21.408,5.634l-22.535,5.07l-10.141,1.69l-12.958,0.563l-8.451,-1.127l-7.324,-2.817l-5.07,-3.38l-3.944,-3.944l-3.38,-6.761l-1.127,-4.507l0.563,-5.634l2.254,-6.197l3.38,-6.197l6.197,-7.324l4.507,-3.944l9.014,-6.761l8.451,-5.634l11.831,-6.761l13.521,-7.324l10.704,-6.197l18.028,-9.577l14.648,-7.887l7.887,-4.507l12.958,-6.761l12.958,-7.324l9.577,-5.07l14.085,-8.451l14.648,-8.451l10.141,-6.197l11.831,-7.324l19.718,-11.831l16.338,-10.704l12.394,-7.887l19.155,-12.958l9.577,-6.761l7.887,-6.197l5.634,-5.07l4.507,-3.944l5.634,-5.634l6.197,-7.887l5.07,-9.577l2.254,-7.324l0.563,-2.254l0,-7.324l-2.254,-7.324l-3.944,-6.197l-5.07,-4.507l-6.761,-3.38l-4.507,-1.127l-10.704,0l-9.014,2.254l-8.451,2.817l-11.831,4.507l-21.972,7.887l-21.408,7.324l-19.155,5.634l-22.535,5.634l-20.845,3.944l-9.014,1.127l-10.704,0l-7.887,-1.127l-6.197,-2.254l-4.507,-3.38l-4.507,-5.634l-2.254,-4.507l-0.563,-2.254l0,-6.761l2.817,-7.324l6.197,-9.014l7.324,-7.324l7.324,-5.07l14.085,-9.014l5.634,-3.944l15.775,-9.577l22.535,-14.085l9.577,-6.197l11.831,-7.887l10.141,-7.324l9.577,-6.761l9.014,-6.761l7.887,-5.634l9.014,-6.761l7.324,-6.197l5.634,-4.507l7.324,-6.197l5.634,-5.07l7.887,-6.761l6.761,-6.197l4.507,-3.944l13.521,-12.394l5.634,-5.07l12.394,-12.394l3.944,-4.507l6.761,-6.761l3.944,-4.507l6.761,-7.324l3.944,-4.507l15.211,-16.901l6.761,-7.887l6.197,-6.761l6.197,-7.324l5.634,-6.197l5.07,-6.197l7.324,-8.451l5.07,-6.197l5.07,-5.634l3.944,-5.07l5.634,-6.197l3.944,-4.507l6.197,-7.324l5.634,-6.197l5.07,-6.197l16.338,-16.338l0.563,-1.127l1.127,0l0,-1.127l4.507,-3.944l14.085,-14.085l3.944,-4.507l4.507,-3.944l3.944,-3.944l6.197,-5.07l5.07,-4.507l7.887,-6.197l6.197,-5.07l7.887,-6.197l7.324,-5.634l21.972,-14.648l9.577,-6.197l15.775,-9.014l15.211,-7.887l9.014,-4.507l20.282,-8.451l17.465,-6.197l19.155,-5.634l22.535,-5.07l18.028,-2.817l21.972,-2.254l13.521,-0.563Zm89.014,149.296l-4.507,0.563l-8.451,2.254l-9.014,4.507l-9.014,6.197l-6.197,6.197l-6.197,6.761l-6.197,8.451l-5.634,10.704l-3.38,9.014l-3.944,14.085l-1.69,10.704l0,28.169l1.127,6.761l2.817,10.704l3.944,10.704l5.07,9.577l5.634,7.887l6.197,6.197l5.07,3.944l8.451,4.507l8.451,2.817l10.704,1.69l5.634,0l4.507,-0.563l6.761,-1.69l7.324,-2.817l6.761,-3.944l7.324,-5.07l6.197,-6.197l6.197,-7.887l5.634,-7.887l5.07,-9.014l6.197,-18.592l3.38,-15.775l1.69,-13.521l0,-6.197l-0.563,-10.141l-1.69,-11.268l-3.38,-11.268l-3.944,-8.451l-5.634,-9.014l-6.197,-7.324l-7.324,-6.197l-6.197,-3.944l-9.014,-3.944l-9.014,-1.69l-12.958,0Z" style="fill:#fff;"/><path d="M168.254,-0l2.254,0.563l2.817,2.817l7.324,20.845l5.07,16.338l6.197,19.718l5.634,13.521l6.197,11.268l4.507,6.761l6.761,9.014l6.197,6.761l7.887,6.197l8.451,5.07l16.338,7.887l15.775,6.197l23.099,7.887l12.394,4.507l3.944,2.817l-2.817,2.817l-7.887,3.38l-20.282,7.324l-16.338,6.197l-16.901,7.324l-9.577,5.07l-9.577,6.761l-7.887,6.761l-5.634,5.634l-5.07,6.197l-6.761,10.141l-8.451,15.775l-7.324,18.028l-6.761,20.282l-3.944,13.521l-2.817,4.507l-3.38,-0.563l-2.817,-2.817l-11.831,-35.493l-5.634,-14.648l-9.014,-18.592l-5.634,-9.014l-6.197,-7.887l-5.07,-5.634l-6.197,-5.634l-10.141,-6.761l-10.141,-5.634l-15.211,-6.197l-22.535,-7.324l-16.338,-5.07l-7.324,-2.817l-3.38,-2.254l-1.127,-2.254l2.817,-2.817l7.887,-3.944l23.662,-9.014l18.028,-7.324l10.141,-4.507l12.958,-6.761l9.014,-6.761l5.634,-5.07l3.944,-4.507l3.944,-5.07l6.197,-9.014l5.634,-9.577l5.634,-12.394l6.761,-18.592l5.07,-16.338l6.761,-20.282l2.817,-5.07l2.254,-2.254Z" style="fill:#fff;fill-rule:nonzero;"/></svg>